<svg width="96" height="96" viewBox="0 0 96 96" fill="none" xmlns="http://www.w3.org/2000/svg">
  <rect x="10" y="10" width="76" height="76" rx="24" fill="#0B0D0B"/>
  <rect x="10.5" y="10.5" width="75" height="75" rx="23.5" stroke="#93FF5F" stroke-opacity="0.22"/>
  <path d="M34 69V36.5C34 31.2533 38.2533 27 43.5 27H52.5C57.7467 27 62 31.2533 62 36.5V69" stroke="#F7FBF8" stroke-width="4.5" stroke-linecap="round"/>
  <path d="M32 42H64" stroke="#93FF5F" stroke-width="4.5" stroke-linecap="round"/>
  <path d="M39 33C39 28.5817 42.5817 25 47 25H49C53.4183 25 57 28.5817 57 33V36H39V33Z" fill="#93FF5F"/>
  <path d="M49 32L49 55" stroke="#0B0D0B" stroke-width="3.5" stroke-linecap="round"/>
  <circle cx="49" cy="58.5" r="4" fill="#93FF5F"/>
  <path d="M49 62.5L43.5 69" stroke="#93FF5F" stroke-width="3.5" stroke-linecap="round"/>
  <path d="M49 62.5L54.5 69" stroke="#93FF5F" stroke-width="3.5" stroke-linecap="round"/>
  <path d="M49 47.5L43.5 53" stroke="#93FF5F" stroke-width="3.5" stroke-linecap="round"/>
  <path d="M49 47.5L54.5 53" stroke="#93FF5F" stroke-width="3.5" stroke-linecap="round"/>
</svg>
